<?xml version="1.0" standalone="no"?>
<!DOCTYPE svg PUBLIC "-//W3C//DTD SVG 20010904//EN"
 "http://www.w3.org/TR/2001/REC-SVG-20010904/DTD/svg10.dtd">
<svg version="1.0" xmlns="http://www.w3.org/2000/svg"
 width="1000.000000pt" height="1000.000000pt" viewBox="0 0 1000.000000 1000.000000"
 preserveAspectRatio="xMidYMid meet">

<g transform="translate(0.000000,1000.000000) scale(0.100000,-0.100000)"
fill="#0099cc" stroke="none">
<path d="M1198 9123 c-522 -2 -948 -5 -948 -8 0 -2 68 -123 152 -267 195 -339
421 -730 688 -1193 118 -203 286 -496 375 -650 89 -154 264 -458 390 -675 125
-217 301 -521 390 -675 289 -501 538 -933 749 -1297 113 -197 298 -517 409
-710 112 -194 298 -515 412 -713 114 -198 283 -490 375 -650 92 -159 259 -447
370 -640 111 -192 254 -441 318 -552 65 -112 120 -203 124 -203 3 0 63 98 131
217 119 208 239 416 752 1303 125 217 310 537 410 710 100 173 258 448 352
610 332 575 583 1010 788 1365 212 367 461 799 750 1300 89 154 265 458 390
675 126 217 301 521 390 675 274 475 577 1001 688 1193 l106 182 -508 0 c-279
0 -1101 3 -1827 6 l-1319 7 -330 -574 c-656 -1139 -763 -1323 -772 -1326 -5
-2 -160 259 -345 579 -185 321 -432 748 -548 951 l-212 367 -877 -2 c-482 -2
-1302 -4 -1823 -5z m4002 -2313 c0 -137 0 -140 -22 -145 -40 -9 -308 -65 -313
-65 -3 0 -5 62 -5 139 l0 138 108 23 c59 12 132 28 162 35 30 7 58 14 63 14 4
1 7 -62 7 -139z m-1370 -165 l0 -145 130 0 130 0 0 -145 0 -145 -127 0 -128 0
5 -275 5 -275 28 -27 c25 -25 35 -28 95 -28 37 0 79 4 95 9 l27 8 0 -141 0
-142 -33 -14 c-18 -8 -73 -19 -121 -25 -152 -21 -264 15 -349 110 -89 99 -87
79 -87 738 l0 577 148 31 c81 18 155 32 165 33 15 1 17 -12 17 -144z m-590
-141 c36 -8 80 -19 98 -25 l32 -11 0 -163 0 -164 -47 20 c-127 55 -322 78
-371 43 -29 -20 -29 -64 1 -91 12 -12 81 -43 152 -69 153 -57 237 -110 282
-177 61 -91 69 -247 18 -349 -64 -128 -172 -193 -360 -219 -123 -16 -287 7
-417 58 l-38 15 0 157 c0 87 3 160 6 163 3 4 34 -7 69 -23 147 -67 331 -93
388 -56 35 23 44 60 23 92 -19 29 -53 46 -204 105 -128 49 -202 98 -242 158
-41 62 -53 113 -48 204 14 232 206 368 498 352 52 -2 124 -11 160 -20z m2738
11 c111 -15 253 -128 312 -248 51 -105 70 -202 70 -357 0 -159 -19 -252 -75
-367 -66 -133 -178 -219 -319 -244 -84 -14 -167 0 -243 41 l-53 28 0 -183 0
-183 -92 -21 c-138 -31 -242 -50 -250 -44 -5 2 -8 355 -8 784 l0 779 155 0
c154 0 155 0 155 -22 0 -48 14 -51 68 -14 45 30 79 41 177 59 11 3 29 3 40 1
11 -1 39 -5 63 -9z m1037 5 c89 -14 194 -70 250 -132 104 -116 155 -274 155
-480 l0 -128 -325 0 c-320 0 -325 0 -325 -20 0 -68 69 -140 150 -160 107 -26
283 -2 413 54 16 8 17 -2 17 -133 l0 -140 -27 -15 c-107 -55 -297 -84 -430
-66 -146 19 -237 64 -326 159 -103 112 -147 245 -147 446 0 211 53 358 171
478 117 118 259 164 424 137z m-2227 -170 l2 -156 -77 1 c-81 0 -122 -14 -164
-56 -18 -18 -19 -36 -19 -419 l0 -400 -170 0 -170 0 0 590 0 590 149 0 149 0
7 -47 7 -47 25 32 c45 58 119 83 213 72 l45 -5 3 -155z m412 -440 l0 -590
-170 0 -170 0 0 590 0 590 170 0 170 0 0 -590z"/>
<path d="M5719 6197 l-44 -24 -3 -260 -2 -261 35 -22 c107 -66 231 -21 286
103 35 79 39 249 9 330 -24 64 -68 120 -111 143 -43 22 -119 18 -170 -9z"/>
<path d="M6855 6221 c-55 -34 -93 -98 -95 -158 0 -23 0 -23 170 -23 94 0 170
3 170 8 -2 67 -49 151 -100 177 -40 21 -109 19 -145 -4z"/>
</g>
</svg>
